<?xml version="1.0" standalone="no"?>
<!DOCTYPE svg PUBLIC "-//W3C//DTD SVG 20010904//EN"
 "http://www.w3.org/TR/2001/REC-SVG-20010904/DTD/svg10.dtd">
<svg version="1.0" xmlns="http://www.w3.org/2000/svg"
 width="110.000000pt" height="110.000000pt" viewBox="0 0 110.000000 110.000000"
 preserveAspectRatio="xMidYMid meet">
<metadata>
Created by potrace 1.14, written by Peter Selinger 2001-2017
</metadata>
<g transform="translate(0.000000,110.000000) scale(0.100000,-0.100000)"
fill="#000000" stroke="none">
<path d="M230 967 c-50 -16 -104 -75 -119 -130 -26 -93 15 -193 95 -233 48
-23 255 -34 279 -14 20 16 22 359 3 378 -15 15 -209 14 -258 -1z"/>
<path d="M730 967 c-78 -25 -140 -129 -127 -212 14 -87 65 -144 150 -166 147
-40 279 98 237 248 -31 107 -147 166 -260 130z"/>
<path d="M230 508 c-82 -28 -139 -125 -126 -218 23 -174 258 -227 361 -81 26
37 30 51 30 109 0 79 -25 129 -85 168 -44 29 -127 39 -180 22z"/>
<path d="M613 509 c-20 -20 -18 -362 2 -379 10 -8 49 -11 127 -8 133 4 176 20
223 87 26 37 30 51 30 110 0 56 -4 74 -27 108 -48 72 -85 88 -223 91 -88 3
-123 0 -132 -9z"/>
</g>
</svg>
