<?xml version="1.0" standalone="no"?>
<!DOCTYPE svg PUBLIC "-//W3C//DTD SVG 20010904//EN"
 "http://www.w3.org/TR/2001/REC-SVG-20010904/DTD/svg10.dtd">
<svg version="1.0" xmlns="http://www.w3.org/2000/svg"
 width="120.000000pt" height="120.000000pt" viewBox="0 0 120.000000 120.000000"
 preserveAspectRatio="xMidYMid meet">
<metadata>
Created by potrace 1.14, written by Peter Selinger 2001-2017
</metadata>
<g transform="translate(0.000000,120.000000) scale(0.100000,-0.100000)"
fill="#000000" stroke="none">
<path d="M215 1111 c-90 -41 -145 -126 -145 -226 0 -71 23 -126 71 -174 61
-61 95 -71 267 -71 l152 0 0 245 0 245 -152 0 c-127 0 -160 -4 -193 -19z"/>
<path d="M785 1111 c-90 -41 -145 -126 -145 -226 0 -141 104 -245 245 -245
141 0 245 104 245 245 0 141 -104 245 -245 245 -37 0 -76 -8 -100 -19z"/>
<path d="M215 541 c-90 -41 -145 -126 -145 -226 0 -141 104 -245 245 -245 141
0 245 104 245 245 0 100 -55 185 -145 226 -53 24 -147 24 -200 0z"/>
<path d="M640 315 l0 -245 153 0 c171 0 205 10 266 71 48 48 71 103 71 174 0
71 -23 126 -71 174 -61 61 -95 71 -266 71 l-153 0 0 -245z"/>
</g>
</svg>
